# xmcd CD database file
#
# Track frame offsets:
#	150
#	48276
#	97203
#	143613
#
# Disc length: 2594 seconds
#
# Revision: 3
# Processed by: cddbd v1.5.1PL2 Copyright (c) Steve Scherf et al.
# Submitted via: CDex 1.51
#
DISCID=300a2004
DTITLE=Dusko Kulis - Megamix 2004
DYEAR=2003
DGENRE=Narodne
TTITLE0=Kulis 2004 mix 1 (Lopov - Ti mene ne volis - Kako mi nedostajes - Zeljo moja moj otrove - Zapalit cu pola grada - Djavolica)
TTITLE1=Kulis 2004 mix 2 (Tebi moja mazo - Bezobrazno zelene - Sta ce meni vise od toga - Umri muski - Pitao sam prolaznike plave oci gdje su - Plava Ciganko)
TTITLE2=Kulis 2004 mix 3 (Slatko li je ljubit tajno - A i ti me iznevjeri - Ruzica si bila - Patim, evo, deset dana - Hop cup - Tako ti je mala moja kad ljubi Bosanac)
TTITLE3=Kulis 2004 mix 4 (Pjevaj brate - Varnice - Lutalica - Tanana - Ginem - Drska zeno plava - Mala voli disko)
EXTD=YEAR: 2003
EXTT0=
EXTT1=
EXTT2=
EXTT3=
PLAYORDER=
